<?xml version="1.0" standalone="no"?>
<!DOCTYPE svg PUBLIC "-//W3C//DTD SVG 20010904//EN"
 "http://www.w3.org/TR/2001/REC-SVG-20010904/DTD/svg10.dtd">
<svg version="1.0" xmlns="http://www.w3.org/2000/svg"
 width="288.000000pt" height="288.000000pt" viewBox="0 0 288.000000 288.000000"
 preserveAspectRatio="xMidYMid meet">
<metadata>
Created by potrace 1.14, written by Peter Selinger 2001-2017
</metadata>
<g transform="translate(0.000000,288.000000) scale(0.100000,-0.100000)"
fill="#000000" stroke="none">
<path d="M0 2259 c0 -560 2 -620 16 -609 12 11 18 11 30 -2 14 -14 13 -17 -15
-34 l-31 -18 0 -287 c0 -220 3 -289 13 -293 9 -5 9 -7 -1 -12 -18 -9 -16 -94
3 -94 19 0 19 -19 0 -26 -13 -5 -15 -64 -15 -445 l0 -439 1440 0 1440 0 0
1440 0 1440 -1440 0 -1440 0 0 -621z m1220 497 c-46 -12 -113 -45 -95 -45 17
-1 108 25 149 43 29 12 55 14 107 10 71 -7 81 -18 28 -29 -31 -7 -139 -53
-139 -60 0 -2 22 -3 49 -2 43 2 48 0 41 -14 -6 -11 -5 -16 5 -16 8 0 12 4 9 9
-6 9 8 11 44 8 27 -2 84 -30 61 -30 -8 0 -25 -9 -37 -21 -13 -11 -44 -30 -70
-41 -26 -12 -42 -23 -35 -25 7 -2 22 1 33 7 12 6 33 14 47 16 15 3 35 10 46
16 16 8 17 12 6 20 -11 8 -10 9 4 4 10 -3 26 0 36 6 15 9 22 8 37 -6 13 -14
27 -17 58 -12 25 3 33 2 21 -3 -16 -7 -15 -9 13 -14 42 -8 41 -24 0 -24 -71 0
-85 -3 -85 -18 0 -12 8 -14 36 -9 27 4 32 3 21 -5 -8 -6 -32 -11 -53 -11 -23
0 -51 -9 -68 -21 -21 -15 -27 -16 -23 -5 5 12 -4 11 -48 -5 -29 -11 -68 -25
-86 -30 -20 -6 -30 -14 -26 -21 4 -7 2 -8 -4 -4 -17 10 -83 -30 -111 -67 -13
-18 -45 -48 -70 -68 -28 -22 -47 -46 -48 -59 -2 -21 -1 -22 18 -4 11 10 16 20
11 23 -5 3 5 17 22 30 l31 25 -23 -25 c-12 -14 -19 -29 -15 -33 4 -4 -15 -27
-42 -52 -53 -47 -81 -59 -49 -21 10 12 4 9 -14 -7 -32 -30 -45 -50 -17 -26 28
24 15 -6 -16 -36 -17 -16 -44 -49 -61 -74 l-30 -45 47 53 c26 29 73 76 103
105 83 77 115 110 136 140 10 15 22 24 27 21 5 -3 9 0 9 6 0 6 8 14 17 17 9 4
45 24 80 45 34 21 64 38 67 38 2 0 21 8 42 17 22 10 46 18 54 18 8 1 14 7 12
15 -3 12 -1 13 10 2 11 -11 10 -15 -2 -22 -8 -5 -24 -16 -35 -25 -16 -13 -13
-12 20 2 22 10 41 21 43 25 2 3 15 4 28 2 16 -3 23 -1 19 6 -3 6 3 10 15 10
12 0 18 4 15 10 -3 6 1 7 9 4 9 -3 16 -2 16 4 0 5 6 12 14 15 12 5 12 1 0 -23
-8 -15 -21 -31 -29 -34 -8 -3 -15 -10 -15 -16 0 -6 3 -9 8 -7 4 3 15 2 24 -2
13 -4 2 -15 -42 -41 -78 -46 -100 -79 -28 -42 28 15 60 35 70 45 10 9 23 17
30 17 6 0 3 -7 -8 -16 -21 -16 -21 -16 49 2 18 5 16 2 -10 -17 -17 -13 -40
-29 -50 -35 -10 -7 -15 -15 -10 -20 4 -4 20 5 35 19 35 33 37 33 40 2 1 -16
-4 -28 -15 -32 -9 -3 -32 -24 -52 -46 -51 -56 -104 -138 -86 -131 8 4 15 10
15 14 0 12 81 100 104 112 11 6 1 -8 -22 -31 -24 -24 -41 -46 -37 -49 3 -4 9
-2 13 4 4 5 21 20 39 32 17 12 35 31 38 41 3 11 12 22 20 25 9 3 12 0 8 -10
-7 -19 16 -18 47 2 14 9 7 0 -15 -21 -24 -23 -32 -35 -20 -30 43 16 60 16 33
0 -34 -19 -38 -45 -5 -38 18 5 17 0 -13 -26 -19 -18 -30 -30 -23 -27 21 11 24
-13 2 -24 -13 -8 -19 -18 -16 -30 3 -13 1 -17 -10 -13 -11 4 -14 2 -11 -8 3
-8 -3 -36 -14 -64 -33 -86 -55 -157 -73 -240 -9 -44 -21 -90 -26 -103 -15 -38
-11 -59 13 -65 12 -4 24 -4 27 -2 2 3 -2 5 -9 5 -8 0 1 11 20 25 40 29 46 30
67 9 12 -11 18 -12 23 -4 5 7 16 9 30 5 18 -6 21 -13 18 -38 -3 -18 -9 -41
-13 -52 -8 -18 -7 -19 8 -6 11 8 17 28 17 55 1 40 21 82 33 69 4 -3 7 1 7 10
0 20 21 22 38 5 16 -16 26 -3 17 19 -5 10 -7 24 -6 32 2 9 -3 12 -13 8 -9 -4
-16 -2 -16 3 0 9 26 15 97 23 26 3 34 -1 43 -21 8 -19 8 -27 0 -32 -8 -5 -7
-12 4 -23 12 -11 13 -17 3 -20 -7 -3 -5 -6 5 -6 10 -1 22 -10 28 -21 17 -32
23 -141 10 -175 -11 -29 -12 -29 -26 -11 -11 16 -14 17 -14 4 0 -8 -7 -21 -15
-28 -13 -11 -14 -10 -9 6 6 17 4 16 -18 -3 -13 -13 -28 -23 -32 -23 -5 0 -6
37 -4 81 4 72 3 80 -9 63 -9 -12 -13 -34 -10 -59 2 -27 -2 -48 -13 -65 -26
-37 -31 -85 -35 -296 -2 -105 -7 -202 -10 -216 -6 -24 -45 -57 -45 -39 0 6
-13 3 -29 -7 -28 -16 -31 -15 -50 2 -40 37 -169 64 -159 34 3 -7 14 -14 26
-16 12 -2 22 -8 22 -13 0 -5 8 -9 18 -9 25 0 67 -23 68 -38 3 -25 5 -27 14
-12 7 12 10 11 16 -5 4 -11 15 -32 25 -46 10 -14 16 -29 12 -32 -3 -4 0 -13 6
-21 7 -8 11 -25 9 -38 -3 -21 -8 -23 -58 -21 -30 1 -86 5 -125 8 -38 4 -96 2
-127 -3 -33 -5 -63 -5 -72 0 -35 20 -34 -5 1 -29 26 -18 49 -26 74 -24 22 1
41 -4 49 -14 7 -8 16 -13 20 -10 5 3 11 -4 15 -15 4 -11 11 -18 16 -15 5 4 9
1 9 -4 0 -6 8 -11 19 -11 10 0 23 -6 29 -13 9 -11 -1 -14 -50 -15 -40 -1 -67
-7 -77 -17 -13 -13 -13 -15 -1 -15 20 -1 -30 -29 -51 -30 -21 0 -48 -30 -29
-30 8 0 11 -2 8 -5 -6 -7 -149 58 -169 76 -8 8 -30 22 -49 33 -85 46 -261 169
-311 218 -89 87 -110 120 -113 178 -1 28 2 53 6 56 4 3 8 10 8 15 0 6 -4 8 -9
5 -5 -3 -15 2 -22 11 -8 10 -9 14 -2 10 7 -5 14 1 18 15 3 13 10 32 15 43 5
11 12 34 15 50 6 25 8 27 14 11 6 -17 10 -15 29 15 12 19 22 30 22 25 0 -4 9
2 20 15 l19 24 1 -25 c0 -24 1 -24 19 7 13 20 26 30 38 28 10 -2 20 -4 22 -4
3 -1 -1 -7 -7 -13 -10 -10 -15 -10 -22 2 -6 9 -10 10 -10 3 0 -6 4 -15 10 -18
6 -4 0 -25 -14 -53 -23 -47 -39 -115 -29 -126 7 -7 33 19 33 34 0 6 5 8 10 5
6 -4 8 -11 5 -16 -4 -5 -1 -9 4 -9 13 0 14 10 2 29 -6 9 -4 19 5 28 8 8 11 19
8 24 -12 20 7 58 50 103 24 25 51 46 60 46 9 0 16 8 16 20 0 11 4 20 10 20 5
0 7 -7 4 -15 -4 -10 0 -13 15 -10 12 2 26 7 33 11 20 12 160 15 174 3 9 -7 19
-7 30 -1 22 12 62 -12 75 -45 7 -18 16 -23 44 -23 19 0 35 4 35 8 0 5 12 14
28 21 49 22 99 61 110 86 13 27 32 34 32 10 0 -8 -9 -30 -20 -50 -22 -39 -19
-44 9 -17 26 25 44 62 43 92 0 20 9 30 49 49 40 20 51 31 59 60 15 55 12 59
-16 23 -20 -25 -32 -32 -55 -30 -16 1 -29 6 -29 10 0 5 -21 18 -47 31 -27 12
-50 26 -51 30 -2 4 -10 3 -18 -4 -8 -6 -14 -7 -14 -2 0 6 -12 8 -27 6 -23 -4
-25 -2 -13 7 13 10 12 11 -6 7 -17 -4 -21 0 -18 17 3 11 -4 4 -15 -18 -10 -21
-23 -41 -28 -45 -5 -3 -15 -15 -22 -26 -11 -18 -11 -18 -5 5 5 19 -3 13 -30
-22 -20 -27 -41 -48 -46 -48 -4 0 -13 -12 -18 -27 -6 -16 -11 -22 -11 -15 -1
10 -4 10 -16 -2 -8 -8 -15 -18 -15 -23 0 -5 -13 -17 -30 -26 l-29 -18 12 23
c7 13 25 42 41 66 16 23 26 45 23 48 -3 3 7 42 23 85 16 44 41 114 55 157 32
96 86 202 99 195 5 -4 7 1 3 10 -3 10 -2 17 4 17 6 0 8 4 5 9 -4 5 -2 22 4 36
6 15 15 46 20 69 l9 41 -19 -25 c-11 -14 -20 -32 -20 -40 0 -12 -2 -13 -9 -1
-6 10 -16 1 -36 -35 -14 -27 -31 -56 -36 -64 -24 -39 -93 -186 -91 -193 1 -5
-3 -5 -9 -1 -9 5 -10 2 -6 -9 3 -10 2 -17 -4 -17 -6 0 -7 -5 -3 -12 5 -7 3 -8
-6 -3 -9 5 -10 2 -6 -13 8 -23 -8 -39 -20 -21 -5 8 -3 9 6 4 10 -6 12 -4 7 8
-3 9 0 35 8 58 8 23 13 45 10 49 -3 5 0 12 6 15 11 7 52 95 46 101 -5 5 -71
-110 -72 -124 0 -7 -7 -17 -15 -22 -8 -5 -11 -12 -8 -16 4 -4 -1 -19 -11 -33
-9 -14 -28 -62 -41 -106 -12 -44 -26 -84 -30 -90 -11 -16 -11 -73 -1 -80 6 -3
9 9 7 29 -1 21 2 32 8 29 5 -4 7 0 4 8 -2 8 7 38 22 68 20 42 28 50 33 37 5
-11 3 -15 -5 -10 -8 5 -9 2 -5 -10 4 -9 3 -15 -2 -12 -5 3 -11 -7 -14 -22 -3
-15 0 -30 6 -34 13 -8 -2 -42 -41 -95 -21 -28 -26 -30 -38 -18 -8 7 -14 26
-13 42 0 25 1 26 9 8 10 -23 13 -5 4 19 -3 9 -11 13 -16 10 -6 -4 -5 2 1 14
17 33 13 37 -12 14 -13 -12 -27 -19 -32 -15 -4 5 -5 3 -2 -3 9 -15 -56 -89
-93 -108 -17 -8 -41 -13 -54 -10 -17 3 -39 -7 -70 -31 -26 -19 -51 -35 -56
-35 -6 0 -10 -8 -10 -17 0 -10 -7 -27 -15 -37 -8 -10 -12 -23 -9 -27 3 -5 -6
-9 -19 -9 -26 0 -37 -16 -37 -54 0 -12 -7 -31 -15 -43 -8 -12 -12 -28 -9 -37
7 -17 -3 -20 -24 -8 -14 10 -7 38 12 45 8 3 13 26 15 55 1 42 -1 50 -16 48
-13 -1 -17 5 -15 18 3 18 2 18 -15 6 -72 -56 -90 -94 -57 -121 29 -24 44 -20
37 12 -3 19 -1 29 6 29 13 0 32 -42 22 -50 -16 -13 -10 -64 13 -105 13 -25 24
-45 22 -45 -1 0 -19 21 -40 46 -30 36 -36 48 -25 55 11 6 11 11 1 21 -9 9 -12
9 -12 -5 0 -24 -11 -21 -37 11 -19 23 -24 25 -34 12 -9 -12 -10 -12 -5 4 7 19
-19 111 -36 133 -11 14 -32 7 -23 -8 4 -5 2 -9 -3 -9 -5 0 -17 15 -26 32 -15
28 -16 38 -5 63 10 24 13 26 16 12 4 -14 8 -16 19 -6 7 6 24 9 37 5 19 -4 26
0 36 20 6 15 9 29 7 32 -3 2 -10 -7 -15 -22 -12 -31 -21 -35 -14 -6 5 20 20
35 37 35 5 0 15 18 23 39 7 22 21 49 31 59 16 20 16 20 -8 14 l-25 -6 25 20
25 20 -25 -7 c-29 -7 -26 -2 9 16 18 9 22 9 16 0 -5 -8 -3 -11 6 -8 7 2 28 27
46 54 18 27 37 54 41 59 24 31 24 37 1 30 -13 -4 -33 -15 -44 -25 -11 -10 -28
-17 -37 -17 -25 0 -22 6 7 17 17 7 25 17 25 34 0 15 8 30 20 36 11 6 20 15 20
21 0 6 -5 7 -12 3 -7 -4 -8 -3 -4 4 4 6 13 9 20 6 8 -3 22 6 33 21 10 15 29
40 43 56 14 16 30 35 36 42 21 25 84 127 110 179 14 29 38 68 51 87 l26 33
-24 -12 c-13 -7 4 15 39 48 74 70 81 90 15 37 -74 -59 -151 -135 -189 -187
-40 -56 -38 -61 7 -15 l31 32 -18 -32 c-10 -18 -22 -33 -26 -33 -4 0 -8 -9 -8
-21 0 -11 -4 -18 -9 -14 -5 3 -12 -3 -16 -14 -3 -10 -15 -27 -27 -37 -20 -18
-20 -16 2 13 13 18 21 35 18 38 -7 7 -64 -70 -104 -140 -15 -27 -41 -68 -56
-89 -16 -22 -25 -42 -22 -45 3 -3 12 3 20 13 8 11 14 15 14 9 0 -7 -4 -14 -9
-17 -5 -4 -8 -14 -7 -24 3 -17 -10 -32 -28 -32 -6 0 -5 5 2 12 18 18 14 28
-10 24 -13 -2 -36 -23 -56 -52 -18 -27 -37 -53 -42 -58 -15 -16 2 38 21 65 10
14 16 28 14 31 -2 2 7 17 20 32 14 16 25 34 25 39 0 26 -186 -258 -206 -315
-8 -23 -18 -45 -23 -48 -5 -3 -11 -32 -14 -65 -4 -33 -4 -54 -1 -47 9 20 24 3
24 -29 0 -17 22 -72 50 -124 28 -52 50 -101 50 -108 0 -8 -10 -17 -21 -20 -18
-5 -21 -12 -17 -40 2 -24 0 -33 -8 -30 -15 6 -24 51 -12 55 14 5 -7 76 -33
113 l-21 30 7 -30 c9 -39 23 -171 29 -265 4 -55 1 -82 -9 -100 -14 -23 -15
-21 -9 36 6 54 4 63 -12 72 -16 9 -20 28 -26 109 -7 115 -17 165 -29 157 -40
-24 -63 -170 -38 -239 9 -25 9 -45 0 -86 -7 -30 -16 -76 -21 -104 -14 -85 -30
-108 -45 -62 -6 19 -8 19 -12 4 -2 -9 -9 -17 -14 -17 -13 0 -12 6 12 52 12 24
18 49 15 64 -5 18 0 27 19 40 23 15 25 22 24 90 -1 74 -13 99 -22 46 -3 -15
-3 14 -1 65 4 84 6 94 33 123 24 27 29 42 34 104 3 41 11 83 18 94 10 16 10
26 -3 52 l-15 31 -6 -46 c-7 -49 -29 -98 -57 -130 -18 -20 -60 -131 -60 -160
0 -22 18 -19 25 5 3 11 11 20 17 20 6 0 7 -7 3 -18 -26 -63 -46 -179 -40 -227
5 -35 4 -37 -7 -20 -8 13 -13 70 -15 167 -1 82 -5 153 -8 159 -4 6 9 37 29 69
20 32 36 66 36 75 0 11 5 15 14 12 8 -3 17 1 20 9 9 23 7 36 -4 29 -5 -3 -10
3 -10 15 0 11 7 23 15 27 19 7 48 60 40 73 -3 5 2 26 11 47 9 21 18 54 21 73
5 32 4 33 -12 20 -27 -22 -65 -87 -66 -112 -1 -17 -2 -19 -6 -5 -6 22 -19 22
-32 0 -19 -35 -19 -6 0 37 26 58 22 79 -9 54 -15 -13 -25 -34 -29 -61 -3 -24
-10 -40 -15 -37 -13 8 -7 94 9 127 7 15 18 48 22 74 11 57 -3 72 -63 73 -34 0
-37 2 -25 16 10 12 23 14 56 9 31 -4 43 -3 43 6 0 13 35 94 107 249 62 132 72
151 104 187 15 17 30 42 34 55 4 13 20 39 35 58 15 19 44 67 65 105 71 129
278 316 457 412 31 16 103 29 173 31 24 0 21 -2 -15 -12z m681 -175 c-49 -20
-40 -30 27 -32 l37 -1 -40 -8 c-24 -5 -42 -4 -46 2 -4 6 -22 14 -40 18 -29 7
-30 8 -9 9 14 1 34 8 44 16 11 8 31 15 45 14 21 0 18 -3 -18 -18z m222 -32
c20 -17 37 -36 36 -42 0 -8 -2 -8 -6 1 -2 6 -10 12 -16 12 -7 0 -25 14 -40 30
-37 39 -22 39 26 -1z m-170 14 c-7 -2 -19 -2 -25 0 -7 3 -2 5 12 5 14 0 19 -2
13 -5z m-1379 -133 c-14 -14 -39 14 -29 31 5 8 12 6 23 -5 11 -11 13 -19 6
-26z m1436 -30 c21 -7 22 -8 5 -9 -11 -1 -37 -4 -58 -7 -32 -6 -36 -4 -31 10
7 17 41 20 84 6z m77 -53 c-2 -7 -22 -12 -48 -12 -24 0 -47 -4 -50 -9 -8 -11
-51 3 -44 14 3 5 -5 10 -17 13 -13 2 19 4 70 5 69 1 92 -2 89 -11z m-90 -43
c-3 -3 -12 -4 -19 -1 -8 3 -5 6 6 6 11 1 17 -2 13 -5z m50 0 c-3 -3 -12 -4
-19 -1 -8 3 -5 6 6 6 11 1 17 -2 13 -5z m16 -18 c-19 -10 -98 -10 -118 1 -7 5
19 8 60 8 47 0 68 -3 58 -9z m20 -66 c19 -16 38 -26 42 -22 5 4 5 2 1 -5 -4
-7 1 -24 10 -37 9 -14 14 -31 11 -38 -3 -9 -7 -6 -12 7 -14 35 -35 53 -56 48
-16 -5 -18 -8 -7 -14 10 -7 10 -9 -2 -9 -13 0 -13 -1 0 -10 9 -6 10 -10 3 -10
-7 0 -16 6 -20 13 -7 10 -53 20 -53 10 0 -2 25 -15 55 -28 64 -30 74 -51 14
-30 -50 18 -52 18 -43 4 4 -8 0 -8 -15 0 -25 14 -28 23 -4 14 11 -4 14 -3 9 5
-4 7 -16 12 -27 12 -18 0 -23 10 -20 36 1 6 -9 16 -21 22 -13 6 -17 11 -10 11
6 1 12 6 12 12 0 5 -4 7 -10 4 -5 -3 -10 -4 -10 -1 0 12 57 35 87 36 22 0 43
-10 66 -30z m295 -85 c-3 -3 -9 2 -12 12 -6 14 -5 15 5 6 7 -7 10 -15 7 -18z
m-1978 -4 c0 -16 -38 -56 -46 -49 -11 12 13 58 31 58 8 0 15 -4 15 -9z m1716
-126 l14 -30 -22 30 c-13 16 -33 40 -45 52 -34 36 -28 41 8 7 17 -16 37 -42
45 -59z m292 -10 c-3 -3 -9 2 -12 12 -6 14 -5 15 5 6 7 -7 10 -15 7 -18z
m-257 -132 c10 -31 17 -58 15 -60 -2 -2 -14 25 -26 61 -12 36 -26 68 -31 71
-5 4 -9 11 -9 18 0 22 31 -33 51 -90z m342 -48 l6 -60 -20 75 c-30 111 -34
146 -11 90 11 -25 22 -72 25 -105z m-573 17 c0 -5 10 -14 23 -20 18 -9 19 -11
4 -11 -10 -1 -22 -11 -27 -23 -7 -18 -9 -19 -9 -5 -1 9 -9 17 -18 18 -11 0
-13 3 -5 6 6 2 12 13 12 24 0 10 5 19 10 19 6 0 10 -4 10 -8z m-1119 -61 c-18
-27 -39 -55 -47 -62 -9 -7 3 17 26 54 24 37 45 65 48 63 2 -3 -10 -28 -27 -55z
m1616 7 c-3 -8 -6 -5 -6 6 -1 11 2 17 5 13 3 -3 4 -12 1 -19z m-633 -42 c-10
-8 -21 -12 -24 -10 -5 6 21 24 34 24 6 0 1 -6 -10 -14z m683 -38 c-3 -7 -5 -2
-5 12 0 14 2 19 5 13 2 -7 2 -19 0 -25z m-274 -8 c3 -11 1 -20 -4 -20 -5 0 -9
9 -9 20 0 11 2 20 4 20 2 0 6 -9 9 -20z m304 -42 c-3 -7 -5 -2 -5 12 0 14 2
19 5 13 2 -7 2 -19 0 -25z m-295 -54 c-6 -35 -12 -29 -12 14 0 23 3 32 9 24 4
-7 6 -24 3 -38z m-1535 6 c-2 -11 -6 -22 -9 -26 -4 -3 -5 2 -3 13 2 10 4 21 4
26 1 4 3 7 6 7 3 0 4 -9 2 -20z m644 -47 c-12 -20 -14 -14 -5 12 4 9 9 14 11
11 3 -2 0 -13 -6 -23z m936 -20 c-3 -10 -5 -4 -5 12 0 17 2 24 5 18 2 -7 2
-21 0 -30z m254 -96 c-13 -13 -15 53 -3 93 5 19 8 13 10 -29 2 -30 -2 -59 -7
-64z m-1931 59 c0 -2 -7 -9 -15 -16 -13 -11 -14 -10 -9 4 5 14 24 23 24 12z
m1619 -50 c-9 -8 -10 -7 -5 7 3 10 7 26 7 35 1 9 4 6 6 -7 3 -13 -1 -28 -8
-35z m-1549 -16 c0 -5 -5 -10 -11 -10 -5 0 -7 5 -4 10 3 6 8 10 11 10 2 0 4
-4 4 -10z m1819 -67 c0 -36 -3 -43 -9 -28 l-9 20 0 -20 c-1 -16 -3 -17 -11 -5
-5 9 -5 19 0 26 6 6 7 14 4 17 -9 9 3 37 16 37 5 0 10 -21 9 -47z m28 -45 c-3
-8 -6 -5 -6 6 -1 11 2 17 5 13 3 -3 4 -12 1 -19z m-1297 -18 c0 -5 -4 -10 -10
-10 -5 0 -10 5 -10 10 0 6 5 10 10 10 6 0 10 -4 10 -10z m1244 -32 c-8 -51
-42 -169 -43 -150 -1 7 -6 10 -12 6 -13 -8 -3 31 16 61 7 11 16 44 20 73 4 28
11 52 16 52 5 0 6 -18 3 -42z m63 -20 c-3 -7 -5 -2 -5 12 0 14 2 19 5 13 2 -7
2 -19 0 -25z m-1927 -178 c0 -13 -1 -13 -10 0 -5 8 -10 22 -10 30 0 13 1 13
10 0 5 -8 10 -22 10 -30z m99 13 c0 -25 -1 -26 -9 -8 -12 27 -12 35 0 35 6 0
10 -12 9 -27z m1220 -80 c1 -43 2 -98 4 -123 2 -39 0 -45 -18 -43 -10 1 -27
-3 -36 -8 -12 -6 -19 -4 -23 7 -3 8 -2 13 3 9 5 -3 20 8 34 24 23 28 24 35 19
120 -3 61 -1 91 6 91 6 0 11 -30 11 -77z m430 -9 c-4 -5 -10 -26 -13 -45 -2
-19 -10 -58 -16 -88 -10 -43 -14 -51 -22 -37 -5 9 -6 25 -3 36 4 11 2 20 -4
20 -6 0 -11 9 -11 21 0 11 4 18 9 14 5 -3 12 3 14 12 3 10 13 49 23 86 l19 68
6 -38 c4 -21 3 -43 -2 -49z m-2119 56 c0 -5 -4 -10 -9 -10 -6 0 -13 5 -16 10
-3 6 1 10 9 10 9 0 16 -4 16 -10z m130 -19 c0 -6 -4 -13 -10 -16 -5 -3 -10 1
-10 9 0 9 5 16 10 16 6 0 10 -4 10 -9z m295 -42 c8 -23 1 -34 -14 -24 -13 8
-15 45 -2 45 5 0 13 -9 16 -21z m-38 -41 c-3 -8 -6 -5 -6 6 -1 11 2 17 5 13 3
-3 4 -12 1 -19z m1598 -58 c3 -5 -1 -10 -10 -10 -9 0 -13 5 -10 10 3 6 8 10
10 10 2 0 7 -4 10 -10z m-85 -21 c0 -5 -23 -54 -51 -109 -42 -84 -53 -99 -65
-89 -8 6 -14 21 -14 33 1 34 37 104 72 140 30 31 58 43 58 25z m590 -149 c0
-5 -7 -10 -15 -10 -8 0 -15 5 -15 10 0 6 7 10 15 10 8 0 15 -4 15 -10z m-150
-44 c0 -11 -19 -15 -25 -6 -3 5 1 10 9 10 9 0 16 -2 16 -4z m-95 -86 c-3 -5
-10 -10 -16 -10 -5 0 -9 5 -9 10 0 6 7 10 16 10 8 0 12 -4 9 -10z m-2200 -169
c-4 -38 -3 -61 4 -65 16 -10 13 -46 -4 -46 -8 0 -17 11 -21 25 -3 14 -14 30
-23 35 -15 9 -15 11 1 20 9 6 19 28 23 50 11 64 28 48 20 -19z m135 -35 c0
-13 -20 -26 -41 -26 -5 0 -9 9 -9 20 0 15 7 20 25 20 15 0 25 -6 25 -14z
m1158 -44 c2 -12 7 -20 11 -18 4 3 13 1 21 -5 29 -18 -15 -10 -69 13 -55 23
-53 41 4 36 23 -2 31 -9 33 -26z m-1472 -10 c-18 -18 -31 -10 -23 12 4 10 13
13 22 9 15 -5 15 -7 1 -21z m369 -146 c27 -8 80 -55 72 -63 -4 -3 -17 3 -30
15 -13 12 -33 22 -45 22 -12 0 -22 5 -22 10 0 6 -11 8 -25 4 -14 -3 -25 -2
-25 3 0 13 43 32 50 23 3 -4 14 -10 25 -14z"/>
<path d="M1248 2614 c-38 -20 -36 -28 2 -9 17 9 30 18 30 20 0 7 -1 6 -32 -11z"/>
<path d="M1165 2580 c-3 -5 -14 -10 -24 -10 -10 0 -34 -13 -52 -30 l-34 -30
70 37 c82 43 83 43 62 43 -9 0 -19 -4 -22 -10z"/>
<path d="M1500 2536 c0 -2 9 -6 20 -9 11 -3 18 -1 14 4 -5 9 -34 13 -34 5z"/>
<path d="M976 2467 c-79 -61 -233 -237 -207 -237 5 0 36 30 68 67 32 36 84 93
116 126 50 52 63 68 55 67 -2 -1 -16 -11 -32 -23z"/>
<path d="M783 2308 c-19 -25 -24 -38 -14 -38 11 0 35 39 28 46 -2 3 -9 -1 -14
-8z"/>
<path d="M1666 2312 c-3 -5 1 -9 9 -9 8 0 12 4 9 9 -3 4 -7 8 -9 8 -2 0 -6 -4
-9 -8z"/>
<path d="M799 2188 l-22 -33 31 29 c34 32 37 36 23 36 -5 0 -20 -15 -32 -32z"/>
<path d="M1674 2189 c-19 -22 -19 -22 3 -10 24 12 39 31 25 31 -5 0 -17 -10
-28 -21z"/>
<path d="M1504 2162 c-6 -4 -17 -18 -24 -31 -8 -16 -15 -20 -19 -12 -5 8 -17
0 -36 -25 -25 -32 -26 -38 -12 -46 15 -8 14 -11 -3 -28 -11 -11 -26 -20 -32
-20 -12 0 -72 -109 -64 -117 2 -2 16 21 31 50 16 30 34 54 41 54 8 0 3 -12
-12 -29 -13 -16 -24 -36 -24 -44 0 -8 -9 -33 -20 -54 -11 -22 -18 -40 -16 -40
2 0 30 48 62 107 32 59 59 102 62 95 2 -7 8 -9 14 -6 7 4 7 9 -1 13 -15 10 19
83 37 76 7 -2 10 0 7 5 -3 5 2 21 11 35 17 26 17 30 -2 17z m-52 -64 c-7 -7
-12 -20 -12 -30 0 -10 -4 -18 -10 -18 -5 0 -10 5 -10 12 0 12 29 48 39 48 3 0
0 -5 -7 -12z"/>
<path d="M698 2141 c-9 -9 -22 -28 -29 -43 -7 -16 -15 -28 -19 -28 -7 0 -50
-73 -50 -85 0 -16 32 20 75 87 45 68 56 101 23 69z"/>
<path d="M1198 2125 c-17 -19 -35 -32 -39 -29 -10 6 -32 -33 -25 -45 3 -5 -1
-11 -9 -15 -8 -3 -15 -12 -15 -21 0 -27 42 19 44 48 0 13 6 23 12 20 6 -2 26
14 44 36 39 50 30 54 -12 6z"/>
<path d="M530 2135 c-7 -9 -10 -18 -7 -21 3 -3 10 4 17 15 13 25 8 27 -10 6z"/>
<path d="M1476 2065 c-9 -14 -13 -25 -8 -25 5 0 14 11 20 25 6 14 10 25 8 25
-2 0 -11 -11 -20 -25z"/>
<path d="M1500 2055 c-7 -9 -11 -18 -8 -20 3 -3 11 1 18 10 7 9 11 18 8 20 -3
3 -11 -1 -18 -10z"/>
<path d="M886 2028 l-18 -33 21 25 c18 22 26 40 18 40 -1 0 -11 -15 -21 -32z"/>
<path d="M1143 2000 c-23 -32 -39 -61 -36 -64 7 -6 46 44 69 87 25 48 11 38
-33 -23z"/>
<path d="M1330 1993 c-34 -66 -34 -67 -21 -59 15 10 64 106 53 106 -4 0 -19
-21 -32 -47z"/>
<path d="M435 1966 c-8 -19 -15 -38 -15 -42 0 -14 38 28 43 47 9 35 -13 31
-28 -5z"/>
<path d="M802 1942 c-21 -26 -26 -39 -17 -39 8 0 15 5 15 11 0 5 10 20 22 33
12 13 19 25 16 28 -3 3 -19 -12 -36 -33z"/>
<path d="M1069 1933 c-13 -16 -12 -17 4 -4 9 7 17 15 17 17 0 8 -8 3 -21 -13z"/>
<path d="M1586 1935 c-9 -26 -7 -32 5 -12 6 10 9 21 6 23 -2 3 -7 -2 -11 -11z"/>
<path d="M849 1923 c-13 -16 -12 -17 4 -4 9 7 17 15 17 17 0 8 -8 3 -21 -13z"/>
<path d="M1076 1904 c-4 -9 -4 -19 -1 -22 2 -3 7 3 11 12 3 9 11 13 17 9 6 -3
7 -1 3 5 -10 17 -23 15 -30 -4z"/>
<path d="M1281 1875 c0 -5 3 -16 8 -23 7 -11 9 -10 14 3 4 9 3 14 -2 10 -5 -3
-12 1 -14 7 -3 7 -6 9 -6 3z"/>
<path d="M1555 1845 c-20 -49 -13 -57 10 -10 9 20 14 39 11 42 -2 3 -12 -12
-21 -32z"/>
<path d="M1251 1854 c0 -11 3 -14 6 -6 3 7 2 16 -1 19 -3 4 -6 -2 -5 -13z"/>
<path d="M1211 1814 c-6 -14 -9 -29 -6 -34 3 -5 1 -11 -5 -15 -5 -3 -10 0 -10
7 0 7 -6 2 -14 -12 -7 -14 -10 -29 -8 -34 3 -5 9 -1 13 10 5 13 8 14 8 4 0 -8
-4 -22 -9 -30 -5 -8 -10 -10 -10 -4 0 6 -7 11 -15 11 -14 0 -20 -17 -16 -41 1
-5 -8 -19 -20 -32 -13 -14 -23 -33 -24 -44 -2 -19 0 -19 16 -4 10 9 21 24 24
33 3 10 17 22 33 29 16 6 19 10 8 9 -11 -1 -20 5 -21 15 -3 15 0 16 16 8 14
-8 19 -7 19 2 0 9 3 9 10 -2 7 -11 8 -7 6 15 -2 17 1 41 6 55 11 26 20 80 14
80 -1 0 -8 -12 -15 -26z"/>
<path d="M607 1762 c-14 -30 -14 -33 -1 -17 23 29 36 55 27 55 -4 0 -16 -17
-26 -38z"/>
<path d="M837 1722 c-14 -15 -14 -19 -3 -19 8 0 17 9 19 19 3 10 4 18 3 18 -2
0 -10 -8 -19 -18z"/>
<path d="M540 1660 c-12 -16 -19 -30 -16 -30 2 0 14 14 26 30 12 17 19 30 16
30 -2 0 -14 -13 -26 -30z"/>
<path d="M1480 1688 c0 -3 -7 -22 -15 -42 -8 -20 -13 -36 -10 -36 8 0 36 73
30 78 -3 3 -5 3 -5 0z"/>
<path d="M467 1628 c-28 -38 -40 -58 -34 -58 2 0 18 20 36 45 18 25 30 45 27
45 -3 0 -16 -15 -29 -32z"/>
<path d="M1843 1615 c-9 -24 1 -27 15 -5 8 13 8 20 2 20 -6 0 -13 -7 -17 -15z"/>
<path d="M1000 1600 c-6 -11 -8 -20 -6 -20 3 0 10 9 16 20 6 11 8 20 6 20 -3
0 -10 -9 -16 -20z"/>
<path d="M885 1520 c-44 -44 -80 -84 -80 -88 0 -4 -4 -6 -9 -4 -11 4 -47 -29
-41 -38 2 -4 -4 -15 -15 -25 -11 -10 -20 -13 -20 -7 0 6 -7 9 -15 5 -9 -3 -14
-8 -11 -11 3 -2 1 -13 -5 -23 -12 -24 12 -27 31 -4 16 19 31 19 24 0 -4 -8
-10 -13 -14 -10 -5 3 -12 -1 -17 -8 -4 -7 -19 -21 -33 -30 -13 -9 -19 -17 -12
-17 6 0 12 -8 12 -17 0 -11 20 4 56 42 31 33 52 61 45 63 -6 2 -11 8 -11 13 0
6 5 7 11 4 6 -4 21 3 35 16 26 25 34 20 8 -5 -8 -9 -11 -16 -6 -16 13 0 29 22
34 45 1 11 12 28 24 37 18 15 101 158 92 158 -2 0 -39 -36 -83 -80z"/>
<path d="M1163 1571 c0 -11 5 -17 9 -15 11 7 10 34 -1 34 -6 0 -9 -9 -8 -19z"/>
<path d="M1445 1517 c-19 -35 -35 -67 -35 -70 0 -32 56 46 64 87 3 14 7 30 11
36 3 5 4 10 1 10 -3 0 -21 -29 -41 -63z"/>
<path d="M970 1550 c-6 -11 -8 -20 -6 -20 3 0 10 9 16 20 6 11 8 20 6 20 -3 0
-10 -9 -16 -20z"/>
<path d="M985 1529 c-4 -6 -5 -12 -2 -15 2 -3 7 2 10 11 7 17 1 20 -8 4z"/>
<path d="M1104 1486 c-10 -8 -16 -18 -11 -22 4 -4 7 -2 7 5 0 7 4 10 9 7 5 -3
11 1 15 9 7 19 5 19 -20 1z"/>
<path d="M1241 1410 c-5 -16 -8 -30 -6 -30 3 0 11 14 20 30 9 17 11 30 6 30
-5 0 -14 -13 -20 -30z"/>
<path d="M1200 1349 c0 -5 5 -7 10 -4 6 3 10 8 10 11 0 2 -4 4 -10 4 -5 0 -10
-5 -10 -11z"/>
<path d="M800 1336 c0 -7 -7 -19 -16 -26 -8 -8 -20 -23 -25 -34 -6 -13 -1 -10
16 9 35 41 48 65 35 65 -5 0 -10 -6 -10 -14z"/>
<path d="M1000 1320 c0 -5 4 -10 9 -10 6 0 13 5 16 10 3 6 -1 10 -9 10 -9 0
-16 -4 -16 -10z"/>
<path d="M615 1228 l-16 -33 21 24 c11 13 20 27 20 32 0 18 -10 8 -25 -23z"/>
<path d="M726 1243 c-6 -14 -5 -15 5 -6 7 7 10 15 7 18 -3 3 -9 -2 -12 -12z"/>
<path d="M1430 1190 c0 -5 5 -10 11 -10 5 0 7 5 4 10 -3 6 -8 10 -11 10 -2 0
-4 -4 -4 -10z"/>
<path d="M807 1048 c-19 -50 -19 -54 -2 -37 9 9 15 25 13 35 -5 18 -5 18 -11
2z"/>
<path d="M885 1001 c-3 -5 -1 -12 5 -16 5 -3 10 1 10 9 0 18 -6 21 -15 7z"/>
<path d="M1709 733 c-1 -5 -1 -12 0 -16 1 -5 -4 -5 -10 -1 -6 3 -15 0 -20 -7
-13 -20 -11 -29 6 -29 8 0 15 5 15 11 0 5 5 7 10 4 6 -4 10 5 10 19 0 24 -8
37 -11 19z"/>
</g>
</svg>
